HIERARCHY
ROOT hip
{
	OFFSET 0.000000 0.000000 0.000000 
	CHANNELS 6 Xposition Yposition Zposition Xrotation Zrotation Yrotation
	JOINT abdomen
	{
		OFFSET 0.000000 3.402643 0.000000 
		CHANNELS 3 Xrotation Zrotation Yrotation
		JOINT chest
		{
			OFFSET 0.000000 8.438565 -0.680529 
			CHANNELS 3 Xrotation Zrotation Yrotation
			JOINT neck
			{
				OFFSET 0.000000 10.207942 -0.272212 
				CHANNELS 3 Xrotation Zrotation Yrotation
				JOINT head
				{
					OFFSET 0.000000 3.130431 0.000000 
					CHANNELS 3 Xrotation Zrotation Yrotation
					End Site
					{
						OFFSET 0.000000 3.130435 0.000000 
					}
				}
			}
			JOINT lCollar
			{
				OFFSET 3.470700 6.669187 -0.816635 
				CHANNELS 3 Yrotation Zrotation Xrotation
				JOINT lShldr
				{
					OFFSET 3.198488 0.000000 0.000000 
					CHANNELS 3 Zrotation Yrotation Xrotation
					JOINT lForeArm
					{
						OFFSET 10.139888 0.000000 0.000000 
						CHANNELS 3 Yrotation Zrotation Xrotation
						JOINT lHand
						{
							OFFSET 8.370511 0.000000 0.000000 
							CHANNELS 3 Zrotation Yrotation Xrotation
							End Site
							{
								OFFSET 4.083176 0.000000 0.000000 
							}
						}
					}
				}
			}
			JOINT rCollar
			{
				OFFSET -3.470700 6.669187 -0.816635 
				CHANNELS 3 Yrotation Zrotation Xrotation
				JOINT rShldr
				{
					OFFSET -3.198488 0.000000 0.000000 
					CHANNELS 3 Zrotation Yrotation Xrotation
					JOINT rForeArm
					{
						OFFSET -10.139888 0.000000 0.000000 
						CHANNELS 3 Yrotation Zrotation Xrotation
						JOINT rHand
						{
							OFFSET -8.370511 0.000000 0.000000 
							CHANNELS 3 Zrotation Yrotation Xrotation
							End Site
							{
								OFFSET -4.083176 0.000000 0.000000 
							}
						}
					}
				}
			}
		}
	}
	JOINT lThigh
	{
		OFFSET 5.308129 -1.633274 1.361059 
		CHANNELS 3 Xrotation Zrotation Yrotation
		JOINT lShin
		{
			OFFSET -2.041588 -20.007561 0.000000 
			CHANNELS 3 Xrotation Zrotation Yrotation
			JOINT lFoot
			{
				OFFSET 0.000000 -19.190928 -1.224953 
				CHANNELS 3 Xrotation Yrotation Zrotation
				End Site
				{
					OFFSET 0.000000 -2.449906 4.627600 
				}
			}
		}
	}
	JOINT rThigh
	{
		OFFSET -5.308129 -1.633274 1.361059 
		CHANNELS 3 Xrotation Zrotation Yrotation
		JOINT rShin
		{
			OFFSET 2.041588 -20.007561 0.000000 
			CHANNELS 3 Xrotation Zrotation Yrotation
			JOINT rFoot
			{
				OFFSET 0.000000 -19.190928 -1.224953 
				CHANNELS 3 Xrotation Yrotation Zrotation
				End Site
				{
					OFFSET 0.000000 -2.449906 4.627600 
				}
			}
		}
	}
}
MOTION
Frames: 9
Frame Time: 0.033333
-54.396873 52.030796 66.309090 -3.173828 -4.404297 -38.281994 35.751549 -10.061841 -1.612116 -10.117187 12.529297 9.416182 51.553619 8.070152 2.616707 -76.357422 -7.529296 -5.292969 2.000000 -2.000000 0.000000 -56.298832 7.089843 -4.970703 -51.535713 -1.418456 -2.065334 -14.077902 59.168678 -8.049014 -2.000000 2.000000 0.000000 68.017578 -14.648438 -19.650908 52.938122 1.167158 -2.285544 9.396114 -50.095592 -13.908023 -11.649427 10.897489 1.379780 5.074124 -5.759206 -0.811794 11.920553 13.217716 -6.318279 15.707991 -3.544718 -7.329019 9.199270 5.447710 1.167059 -8.572725 -3.306147 -0.277191 
-55.040913 52.117783 67.078499 -2.832031 -4.580078 -39.005070 34.729301 -11.923738 -0.748198 -10.117188 14.365235 8.964844 51.553619 8.070152 2.616707 -76.201180 -8.847655 -5.097656 2.000000 -2.000000 0.000000 -56.503906 7.119140 -5.214844 -51.711491 -1.418456 -2.065334 -12.423276 58.643833 -8.275690 -2.000000 2.000000 0.000000 67.236328 -16.201172 -16.943359 52.763081 1.217606 -2.311944 13.775001 -50.927746 -14.332746 -10.921590 11.116817 0.515706 7.017973 -5.731693 -1.021059 11.894273 13.789458 -7.476448 15.958802 -3.622352 -8.229512 11.138912 5.377344 1.035251 -6.377790 -2.794454 -1.946161 
-55.293938 52.260124 67.710266 -2.314453 -4.580078 -39.923038 34.105305 -13.023137 -0.216038 -10.556642 15.419924 8.652344 51.553619 8.070152 2.616707 -77.216797 -10.468750 -3.955079 2.000000 -2.000000 0.000000 -57.363281 6.630859 -7.392578 -51.886723 -1.427068 -2.045274 -10.076867 57.409904 -8.365811 -2.000000 2.000000 0.000000 65.664063 -16.884768 -12.239164 52.226471 1.178223 -1.971784 20.797136 -52.240192 -16.006842 -10.192455 11.178613 0.278246 8.080377 -5.719205 -1.182387 11.920791 13.944791 -7.944180 15.601281 -4.257016 -9.406489 13.613169 5.610830 1.688649 -3.460779 -1.702317 -3.124239 
-54.933777 52.402462 68.316521 -1.943359 -4.589844 -40.479294 34.105305 -13.023137 -0.216038 -10.830077 14.609375 8.859885 51.553619 8.070152 2.616707 -78.505859 -11.533202 -2.236328 2.000000 -2.000000 0.000000 -57.441406 5.751954 -8.866207 -52.238289 -1.427068 -2.045274 -8.901134 55.872288 -9.363124 -2.000000 2.000000 0.000000 64.453125 -17.246092 -9.045862 52.226471 1.178223 -1.971784 24.282259 -52.758770 -16.926111 -9.050293 11.159273 0.357967 8.080533 -5.719325 -1.172649 12.461059 14.505407 -8.466034 14.204315 -5.155056 -8.789650 17.150585 5.529723 1.873191 0.746034 -1.055820 -5.371538 
-55.288597 52.592258 69.453377 -1.611328 -4.580078 -41.212105 34.393501 -12.531345 -0.744686 -11.142578 13.115233 9.357684 51.553619 8.070152 2.616707 -79.003906 -11.269530 -1.515580 2.000000 -2.000000 0.000000 -57.421871 4.609375 -8.954293 -52.765354 -1.436248 -2.034960 -8.765608 54.317780 -9.484413 -2.000000 2.000000 0.000000 64.628906 -17.636721 -9.954131 52.765724 1.017978 -2.411737 20.842415 -52.241261 -15.975967 -8.055745 11.043663 1.466966 8.433801 -5.671861 -1.181468 11.263451 14.188872 -8.972950 11.866738 -6.022510 -8.873476 21.029913 5.299763 2.623514 7.432247 -1.061434 -8.273314 
-55.560936 52.782051 70.485893 -1.064453 -4.580078 -41.954292 34.981373 -11.910812 -1.173033 -11.630859 11.640626 9.816423 51.553619 8.070152 2.616707 -79.130859 -10.117187 -1.503906 2.000000 -2.000000 0.000000 -57.275387 2.910156 -8.202630 -53.297211 -1.445908 -2.200633 -8.983017 52.513218 -10.115524 -2.000000 2.000000 0.000000 65.029297 -18.486326 -12.792969 53.280872 1.197152 -1.960902 15.408648 -50.496445 -16.718508 -7.243220 10.942563 2.225220 9.313440 -5.693881 -1.250151 9.798418 14.088480 -9.395435 6.912658 -6.806027 -8.540389 26.996983 4.606780 2.884484 20.792164 -1.467078 -11.190240 
-55.760872 52.671341 71.280792 -0.722656 -4.580078 -42.500000 35.745182 -11.718985 -1.516214 -12.041016 10.996467 10.060044 51.553619 8.070152 2.616707 -79.697266 -9.218750 -1.456643 2.000000 -2.000000 0.000000 -57.246090 0.986328 -7.089674 -54.000038 -1.464839 -2.189749 -9.539242 50.800476 -10.221522 -2.000000 2.000000 0.000000 65.322266 -18.710938 -15.517577 53.819862 1.026593 -2.391680 10.881670 -49.889111 -15.750874 -7.748912 10.890819 3.264075 11.953266 -5.670062 -1.539574 7.719659 13.658355 -9.398374 3.611641 -8.220135 -8.824919 29.302994 4.850831 2.686120 35.606560 -2.107429 -15.466072 
-55.995190 52.283852 72.036728 -0.361328 -4.589844 -42.871094 37.178345 -12.060902 -1.609022 -12.314453 12.021485 9.611409 51.553619 8.070152 2.616707 -81.132813 -9.121093 -0.802329 2.000000 -2.000000 0.000000 -57.685543 -1.787109 -5.722961 -54.723160 -1.113871 -2.210226 -9.756673 49.210964 -10.684295 -2.000000 2.000000 0.000000 65.351563 -18.271484 -16.946421 53.986790 1.076102 -2.065934 10.071514 -49.331928 -15.559340 -7.841094 10.994690 3.773283 14.259527 -5.556931 -1.604129 3.081662 13.502674 -9.313245 -1.777615 -9.947057 -11.349712 35.989563 4.479244 3.246918 41.396297 -5.749043 -15.365072 
-56.158089 52.165234 72.447174 0.000000 -4.755859 -43.427734 39.084072 -12.776906 -1.346176 -12.333984 14.228516 8.857421 51.553619 8.070152 2.616707 -83.349609 -9.326171 0.263672 2.000000 -2.000000 0.000000 -56.806641 -4.804688 -3.857422 -55.601509 -1.132234 -2.189597 -9.524251 47.665051 -12.282063 -2.000000 2.000000 0.000000 64.667969 -17.343750 -17.707989 54.169037 1.236537 -2.301064 10.132606 -49.420586 -14.367798 -8.384410 10.989791 4.101983 16.209663 -5.537357 -1.508990 0.849428 13.154826 -9.487220 -8.063475 -12.510798 -14.810416 43.865082 3.935363 3.736596 40.253838 -11.663872 -8.700438 
